<svg preserveAspectRatio="none" width="100%" height="100%" overflow="visible" style="display: block;" viewBox="0 0 58 32" fill="none" xmlns="http://www.w3.org/2000/svg">
<g id="Arco SVG" opacity="0.6" clip-path="url(#clip0_0_11)">
<path id="Vector" d="M6.62226 19.1184C8.90936 19.1184 9.9814 20.4376 9.9814 22.7646V26.9144C8.33778 27.97 7.14643 28.3776 5.71727 28.3776C4.21643 28.3776 3.33513 27.7299 3.33513 26.5545C3.33513 25.0913 4.57387 24.5638 7.05138 24.5638C7.43251 24.5638 7.9804 24.5877 8.21844 24.6118V22.2851C7.885 22.2371 7.21811 22.1894 6.59858 22.1894C2.85864 22.1894 0 23.8205 0 26.7226C0 29.6249 1.88196 31.2801 5.36013 31.2801C6.98001 31.2801 8.81433 30.6086 10.1484 29.7209L10.5295 30.7762C10.5772 30.9202 10.6726 30.992 10.8393 30.992H13.4121V22.7166C13.4121 18.639 11.1968 16.0003 7.05168 16.0003C4.24073 16.0003 2.04869 17.1519 0.762566 18.7111L3.07334 20.318C3.81192 19.8141 4.43114 19.5025 4.88394 19.3585C5.28877 19.2386 5.78864 19.1184 6.62226 19.1184ZM49.9075 27.9214C47.7398 27.9214 46.0722 26.2182 46.0722 23.6517C46.0722 21.0852 47.7398 19.3582 49.9075 19.3582C52.0753 19.3582 53.7428 21.0614 53.7428 23.6278C53.7428 26.1942 52.0753 27.9214 49.9075 27.9214ZM49.9075 16C45.6434 16 42.2606 19.4303 42.2606 23.652C42.2606 27.8737 45.6431 31.2798 49.9075 31.2798C54.1719 31.2798 57.5547 27.8498 57.5547 23.6282C57.5547 19.4065 54.1719 16 49.9075 16ZM34.8995 27.9214C32.565 27.9214 31.1118 26.0744 31.1118 23.6517C31.1118 21.229 32.6364 19.3582 34.7564 19.3582C35.3996 19.3582 35.9001 19.4542 36.3049 19.6221C36.8051 19.8379 37.4009 20.1018 38.1869 20.6534L40.6404 18.8546C39.2826 17.0556 37.3769 16 34.566 16C30.683 16 27.2525 19.0942 27.2525 23.556C27.2525 28.0177 30.1589 31.2798 34.8041 31.2798C37.5914 31.2798 39.521 30.1765 40.8791 28.4014L38.4493 26.6266C37.687 27.2022 37.0675 27.4663 36.567 27.6822C36.1145 27.8739 35.5666 27.9214 34.8995 27.9214ZM20.5346 30.9918V20.6895C21.797 19.7542 23.846 19.3704 25.1085 19.4664L26.4663 16.1322C25.9898 16.0361 25.4182 16.0122 25.0131 16.0122C23.4646 16.0122 21.535 16.7559 20.0581 17.6434L19.677 16.5878C19.6293 16.4438 19.5342 16.3718 19.3675 16.3718H16.8423V30.9918H20.5346Z" fill="var(--fill-0, white)"/>
<path id="Vector_2" d="M28.2296 1.78058C28.2369 1.56346 28.1805 1.28122 27.8163 0.97972C27.4319 0.705128 27.1464 0.724087 26.9402 0.787996L16.9648 3.50428C16.9648 3.50428 18.593 6.59118 21.3377 5.47782C24.0828 4.36414 26.8345 2.27258 26.8345 2.27258C26.8345 2.27258 25.5508 5.49463 25.2028 8.45374C24.8548 11.4128 28.24 12.1855 28.24 12.1855L28.2296 1.78058Z" fill="var(--fill-0, white)"/>
<path id="Vector_3" d="M30.5323 0.787996C30.3263 0.724087 30.0408 0.705128 29.6564 0.97972C29.2926 1.28122 29.2361 1.56377 29.2431 1.78058L29.2324 12.1852C29.2324 12.1852 32.6176 11.4121 32.27 8.45342C31.922 5.49433 30.6382 2.27227 30.6382 2.27227C30.6382 2.27227 33.39 4.36384 36.1347 5.4775C38.8797 6.59087 40.5075 3.50398 40.5075 3.50398L30.5323 0.787996Z" fill="var(--fill-0, white)"/>
</g>
<defs>
<clipPath id="clip0_0_11">
<rect width="58" height="32" fill="white"/>
</clipPath>
</defs>
</svg>
