<svg preserveAspectRatio="none" width="100%" height="100%" overflow="visible" style="display: block;" viewBox="0 0 56.021 17.9999" fill="none" xmlns="http://www.w3.org/2000/svg">
<g id="Dotz Logo SVG" opacity="0.6">
<path id="Subtract" d="M10.999 0.30152C12.0012 0.34277 13.1069 0.324312 14.1152 0.315192C14.1119 2.71861 14.1328 5.16167 13.9707 7.56226C13.8907 8.74579 13.4406 10.0436 13.3642 11.1658C13.3356 11.5865 13.7512 13.0917 13.8408 13.657C14.0628 15.0594 14.0858 16.2615 14.1191 17.6726L10.9853 17.6658C10.992 16.8857 10.879 16.0565 10.8135 15.2693C9.37677 17.7594 6.52975 18.4141 3.8906 17.6794C2.90163 17.2747 2.2279 16.8407 1.55662 15.9929C-0.719667 13.1179 -0.578895 7.64956 2.50584 5.36304C3.72263 4.47814 5.24234 4.1155 6.72752 4.35621C8.53426 4.6488 9.75619 5.51155 10.8252 6.97632C10.8645 6.20393 10.96 5.40427 10.9707 4.63941C10.9909 3.19221 10.9772 1.75042 10.999 0.30152ZM5.73631 7.29957C3.44428 7.93633 2.9251 9.94735 3.25388 12.1414C3.56433 14.213 4.94807 15.4045 7.07517 14.7878C8.49314 14.0837 9.23731 12.7926 9.73142 11.324C9.75963 11.2401 9.78634 11.1556 9.81248 11.0711C9.18766 9.28081 7.947 7.12805 5.73631 7.29957Z" fill="var(--fill-0, white)"/>
<path id="Vector" d="M22.3746 4.31654C26.1624 4.0679 29.43 6.94753 29.6596 10.7366C29.8892 14.5257 26.9933 17.7791 23.2032 17.9891C19.4397 18.1986 16.2146 15.3275 15.9866 11.5652C15.7586 7.80287 18.6135 4.56334 22.3746 4.31654Z" fill="var(--fill-0, white)"/>
<path id="Subtract_2" d="M33.1599 0.00265424C34.7657 -0.0428795 36.2634 0.491988 36.9704 2.02902C37.3591 2.87493 37.3591 3.70817 37.3767 4.61496C38.2919 4.62346 40.736 4.69299 41.5476 4.59347C41.5633 5.57204 41.5568 6.57116 41.5593 7.55148C40.1486 7.55746 38.7372 7.55293 37.3259 7.53683C37.3573 9.12886 37.3831 10.9052 37.3435 12.49C37.285 14.8301 38.142 15.7096 40.5359 14.9265C40.5434 15.7387 40.5434 16.5508 40.5359 17.363C40.534 17.4599 40.5203 17.5888 40.5134 17.6882C40.2681 17.9136 38.7604 17.9414 38.3591 17.9665C36.5816 18.0778 34.6074 17.0832 34.3503 15.1433C34.0332 12.7516 34.1391 10.0161 34.1755 7.56125C32.9366 7.62601 31.4233 7.39324 30.4206 6.58762C28.8679 5.33999 28.755 2.82229 30.0485 1.3464C30.8249 0.460632 31.7772 0.108371 32.9333 0.0133964C33.0087 0.0081213 33.0843 0.00485606 33.1599 0.00265424ZM32.861 2.57101C31.6301 3.13545 31.9321 4.49985 33.3796 4.62961L34.1745 4.62082C34.1613 3.711 34.2921 2.52869 33.0163 2.5632C32.9646 2.56477 32.9127 2.56793 32.861 2.57101Z" fill="var(--fill-0, white)"/>
<path id="Vector_2" d="M44.114 4.59155C44.7908 4.65306 45.7858 4.62702 46.4839 4.6274L50.3603 4.62734L53.5183 4.63105C54.2121 4.63155 55.0454 4.6647 55.7172 4.55413C55.1039 5.26361 54.4951 6.14254 53.9057 6.88542C52.5176 8.63459 51.1817 10.4599 49.7772 12.1933C50.8722 12.1577 51.7182 12.107 52.7522 12.5108C55.1259 13.4376 55.8574 15.3242 56.021 17.6671L52.7491 17.6677C52.7459 17.1699 52.7214 16.952 52.6434 16.4572C51.8333 14.7147 50.1797 14.5655 48.562 15.2613C47.4142 15.7546 46.5355 16.7196 45.7625 17.6778C44.519 17.6715 43.2328 17.6482 41.9925 17.679C42.5787 17.0573 43.8228 15.3339 44.3989 14.5803C46.1757 12.2285 47.9652 9.8858 49.7665 7.55231C47.9054 7.51608 45.982 7.54967 44.1083 7.53502L44.114 4.59155Z" fill="var(--fill-0, white)"/>
</g>
</svg>
