<svg preserveAspectRatio="none" width="100%" height="100%" overflow="visible" style="display: block;" viewBox="0 0 197 48" fill="none" xmlns="http://www.w3.org/2000/svg">
<g id="Frame 89">
<g id="Arco SVG" opacity="0.6" clip-path="url(#clip0_0_4)">
<path id="Vector" d="M6.62226 27.0902C8.90936 27.0902 9.9814 28.4094 9.9814 30.7364V34.8862C8.33778 35.9418 7.14643 36.3494 5.71727 36.3494C4.21643 36.3494 3.33513 35.7018 3.33513 34.5263C3.33513 33.0631 4.57387 32.5357 7.05138 32.5357C7.43251 32.5357 7.9804 32.5595 8.21844 32.5837V30.257C7.885 30.209 7.21811 30.1613 6.59858 30.1613C2.85864 30.1613 0 31.7923 0 34.6945C0 37.5967 1.88196 39.2519 5.36013 39.2519C6.98001 39.2519 8.81433 38.5804 10.1484 37.6927L10.5295 38.748C10.5772 38.892 10.6726 38.9638 10.8393 38.9638H13.4121V30.6884C13.4121 26.6108 11.1968 23.9722 7.05168 23.9722C4.24073 23.9722 2.04869 25.1238 0.762566 26.683L3.07334 28.2898C3.81192 27.7859 4.43114 27.4743 4.88394 27.3303C5.28877 27.2104 5.78864 27.0902 6.62226 27.0902ZM49.9075 35.8932C47.7398 35.8932 46.0722 34.19 46.0722 31.6235C46.0722 29.057 47.7398 27.33 49.9075 27.33C52.0753 27.33 53.7428 29.0332 53.7428 31.5997C53.7428 34.1661 52.0753 35.8932 49.9075 35.8932ZM49.9075 23.9718C45.6434 23.9718 42.2606 27.4022 42.2606 31.6238C42.2606 35.8455 45.6431 39.2516 49.9075 39.2516C54.1719 39.2516 57.5547 35.8216 57.5547 31.6C57.5547 27.3783 54.1719 23.9718 49.9075 23.9718ZM34.8995 35.8932C32.565 35.8932 31.1118 34.0462 31.1118 31.6235C31.1118 29.2008 32.6364 27.33 34.7564 27.33C35.3996 27.33 35.9001 27.426 36.3049 27.5939C36.8051 27.8098 37.4009 28.0737 38.1869 28.6253L40.6404 26.8264C39.2826 25.0274 37.3769 23.9718 34.566 23.9718C30.683 23.9718 27.2525 27.0661 27.2525 31.5278C27.2525 35.9895 30.1589 39.2516 34.8041 39.2516C37.5914 39.2516 39.521 38.1483 40.8791 36.3733L38.4493 34.5985C37.687 35.174 37.0675 35.4382 36.567 35.6541C36.1145 35.8458 35.5666 35.8932 34.8995 35.8932ZM20.5346 38.9636V28.6614C21.797 27.726 23.846 27.3422 25.1085 27.4382L26.4663 24.104C25.9898 24.0079 25.4182 23.9841 25.0131 23.9841C23.4646 23.9841 21.535 24.7278 20.0581 25.6152L19.677 24.5596C19.6293 24.4156 19.5342 24.3437 19.3675 24.3437H16.8423V38.9636H20.5346Z" fill="var(--fill-0, white)"/>
<path id="Vector_2" d="M28.2296 9.78058C28.2369 9.56346 28.1805 9.28122 27.8163 8.97972C27.4319 8.70513 27.1464 8.72409 26.9402 8.788L16.9648 11.5043C16.9648 11.5043 18.593 14.5912 21.3377 13.4778C24.0828 12.3641 26.8345 10.2726 26.8345 10.2726C26.8345 10.2726 25.5508 13.4946 25.2028 16.4537C24.8548 19.4128 28.24 20.1855 28.24 20.1855L28.2296 9.78058Z" fill="var(--fill-0, white)"/>
<path id="Vector_3" d="M30.5323 8.788C30.3263 8.72409 30.0408 8.70513 29.6564 8.97972C29.2926 9.28122 29.2361 9.56377 29.2431 9.78058L29.2324 20.1852C29.2324 20.1852 32.6176 19.4121 32.27 16.4534C31.922 13.4943 30.6382 10.2723 30.6382 10.2723C30.6382 10.2723 33.39 12.3638 36.1347 13.4775C38.8797 14.5909 40.5075 11.504 40.5075 11.504L30.5323 8.788Z" fill="var(--fill-0, white)"/>
</g>
<rect id="Rectangle 63" x="82" y="12" width="1" height="24" fill="var(--fill-0, white)" fill-opacity="0.15"/>
<path id="Vector_4" opacity="0.6" d="M136.897 21.0928C137.631 18.9129 137.376 16.5267 136.199 14.5458C134.43 11.5074 130.873 9.94376 127.402 10.68C124.375 7.35854 119.192 7.08755 115.825 10.0733C114.755 11.0205 113.96 12.2292 113.513 13.577C111.233 14.0374 109.263 15.4475 108.109 17.4428C106.319 20.4765 106.725 24.3039 109.113 26.9059C108.376 29.0859 108.629 31.472 109.803 33.4529C111.575 36.4914 115.134 38.055 118.608 37.3187C120.155 39.0358 122.374 40.0119 124.703 39.9999C128.262 40.0023 131.418 37.736 132.504 34.393C134.785 33.9301 136.754 32.5224 137.909 30.5272C139.676 27.4983 139.267 23.6924 136.897 21.0952V21.0928ZM124.703 37.9039C123.281 37.9039 121.905 37.4147 120.816 36.5154L121.008 36.4074L127.467 32.7287C127.795 32.5392 127.995 32.1939 127.997 31.8198V22.8363L130.727 24.3951C130.754 24.4095 130.773 24.4334 130.778 24.4646V31.9085C130.771 35.2156 128.055 37.8943 124.703 37.9015V37.9039ZM111.646 32.4025C110.934 31.1891 110.678 29.7669 110.924 28.3832L111.116 28.4959L117.58 32.1747C117.906 32.3642 118.309 32.3642 118.635 32.1747L126.534 27.6829V30.7934C126.534 30.8269 126.517 30.8557 126.49 30.8749L119.948 34.5968C117.04 36.2492 113.326 35.2659 111.648 32.4025H111.646ZM109.944 18.5244C110.661 17.3037 111.794 16.3708 113.141 15.8936V23.4646C113.136 23.8363 113.338 24.1816 113.666 24.3663L121.526 28.8389L118.796 30.3977C118.766 30.4144 118.73 30.4144 118.701 30.3977L112.171 26.6829C109.271 25.0234 108.274 21.3638 109.947 18.4956V18.5268L109.944 18.5244ZM132.378 23.666L124.494 19.1503L127.219 17.5987C127.248 17.5819 127.285 17.5819 127.314 17.5987L133.844 21.3206C136.749 22.9754 137.746 26.6397 136.068 29.5055C135.363 30.7118 134.252 31.6399 132.927 32.1267V24.5557C132.915 24.184 132.706 23.8459 132.378 23.666ZM135.096 19.6347L134.904 19.522L128.452 15.8121C128.124 15.6226 127.718 15.6226 127.389 15.8121L119.498 20.3038V17.1934C119.496 17.1622 119.51 17.1286 119.537 17.1119L126.067 13.3971C128.977 11.7424 132.696 12.7304 134.371 15.601C135.079 16.8145 135.336 18.2318 135.096 19.6107V19.6371V19.6347ZM118.008 25.1481L115.278 23.5965C115.251 23.5797 115.232 23.5533 115.227 23.5197V16.095C115.232 12.7808 117.957 10.0996 121.317 10.1044C122.734 10.1044 124.107 10.5961 125.197 11.4906L125.004 11.5985L118.545 15.2773C118.217 15.4667 118.018 15.8121 118.015 16.1862L118.008 25.1505V25.1481ZM119.491 21.9945L123.009 19.9944L126.531 21.9945V25.9946L123.021 27.9947L119.498 25.9946L119.491 21.9945Z" fill="var(--fill-0, white)" fill-opacity="0.9"/>
</g>
<defs>
<clipPath id="clip0_0_4">
<rect width="58" height="32" fill="white" transform="translate(0 8)"/>
</clipPath>
</defs>
</svg>
