<svg width="38.5132" height="31.9995" viewBox="0 0 38.5132 31.9995" fill="none" xmlns="http://www.w3.org/2000/svg">
<g id="&#195;&#141;on Ita&#195;&#186; SVG" opacity="0.6">
<path id="Subtract" d="M12.941 7.04087C17.2949 6.52706 21.2425 9.6208 21.7554 13.9491C22.2683 18.2773 19.1522 22.1981 14.7974 22.704C10.4483 23.209 6.5098 20.1164 5.99762 15.7938C5.48549 11.4714 8.59289 7.55417 12.941 7.04087ZM13.6285 9.67857C10.7418 9.8144 8.51182 12.2506 8.64801 15.12C8.78428 17.9894 11.2349 20.2061 14.1216 20.0711C17.0088 19.9361 19.2392 17.4996 19.1031 14.6297C18.9668 11.7598 16.5156 9.54285 13.6285 9.67857Z" fill="var(--fill-0, #FEFEFE)"/>
<path id="Vector" d="M31.5517 7.05222C31.7769 7.0244 32.0034 7.01082 32.23 7.01168C33.8924 7.00718 35.6354 7.65921 36.8134 8.83883C37.535 9.56511 38.0461 10.4713 38.2933 11.462C38.5931 12.6635 38.4998 14.8739 38.4985 16.1972L38.4945 22.3658L35.75 22.3559C35.7347 20.5796 35.9453 13.6624 35.5095 12.4256C35.137 11.3695 34.3408 10.4547 33.3147 9.98315C32.2027 9.47226 31.0047 9.48352 29.8666 9.89341C29.305 10.1546 28.9212 10.3879 28.4774 10.8327C27.9384 11.3716 27.5586 12.0475 27.38 12.7865C27.1388 13.7595 27.2235 15.6929 27.2235 16.7888L27.2222 22.3671L24.4777 22.3502L24.4786 7.37886L27.2215 7.38403L27.2151 9.46477L27.2626 9.40212C28.3188 8.03381 29.8507 7.27601 31.5517 7.05222Z" fill="var(--fill-0, #FEFEFE)"/>
<path id="Vector_2" d="M0.512674 7.37649C1.3664 7.41093 2.42221 7.38755 3.29525 7.39265L3.29499 22.3676L0.529128 22.3485C0.485352 20.6768 0.520466 18.8512 0.520466 17.1697L0.512674 7.37649Z" fill="var(--fill-0, #FEFEFE)"/>
<path id="Vector_3" d="M13.5872 0.0163571C13.671 0.00827703 13.7631 -0.0208006 13.8054 0.0259576C14.0432 0.288691 14.2582 1.31313 14.3492 1.64733C12.5408 2.09783 10.5813 2.70038 8.7723 3.21439C6.08314 3.96868 3.39817 4.73781 0.717601 5.52171L0.629251 5.53827C0.365998 5.37673 0.155846 4.32964 0 3.89411L7.91378 1.63084C9.74762 1.10398 11.75 0.481489 13.5872 0.0163571Z" fill="var(--fill-0, white)"/>
<path id="Subtract_2" d="M31.3223 27.0511C34.2086 26.6239 33.6523 30.0445 33.6289 31.8684C33.3916 31.8678 32.8707 31.898 32.6856 31.804C32.6623 31.6371 32.6645 31.632 32.6006 31.4778C32.0876 31.4401 31.5846 32.5699 30.1074 31.6155C29.8358 31.309 29.764 30.9825 29.6641 30.6018C30.0019 28.954 31.1757 28.9045 32.6143 28.927C32.0766 27.5409 31.2853 27.865 30.0821 28.2796C30.0974 27.9663 30.1157 27.6524 30.1377 27.3392C30.6194 27.1835 30.8261 27.1127 31.3223 27.0511ZM32.5694 29.9602C32.4881 29.5887 32.0403 29.6719 31.7305 29.6897C30.4025 30.0137 30.547 31.1423 31.6699 31.1975C32.1203 30.9982 32.7059 30.5775 32.5694 29.9602Z" fill="var(--fill-0, #FEFEFE)"/>
<path id="Vector_4" d="M37.3525 27.152L38.4932 27.15L38.5019 28.5666C38.5079 29.6647 38.5046 30.7628 38.4919 31.8602C38.2567 31.8622 37.663 31.896 37.4918 31.8L37.4465 31.4947C37.2379 31.4225 36.7522 31.9477 36.2378 31.9748C33.9011 32.0974 34.4588 28.7898 34.4721 27.152H35.6088C35.6088 28.0851 35.5609 29.0216 35.6102 29.9528C35.6961 31.5847 37.3699 31.2946 37.3679 29.8078C37.3665 28.9335 37.3545 28.0289 37.3525 27.152Z" fill="var(--fill-0, #FEFEFE)"/>
<path id="Vector_5" d="M26.9324 25.7499L28.0802 25.7493L28.0756 27.1553L29.1083 27.1288L29.1037 28.0461L28.0696 28.0322C28.0936 28.7978 27.9703 29.9449 28.1542 30.6609C28.3288 31.3404 28.8325 30.8284 29.2036 31.0258C29.3156 31.2357 29.2569 31.4291 29.2269 31.6768L29.1936 31.7835C29.0011 31.9431 28.7326 31.9252 28.494 31.9398C26.4609 32.0616 26.9201 29.4588 26.9332 28.0402C26.6592 28.0382 26.4243 28.0859 26.2252 27.9607C25.7738 26.9295 26.6594 27.211 26.8936 27.101C26.9835 26.8672 26.9376 26.0473 26.9324 25.7499Z" fill="var(--fill-0, #FEFEFE)"/>
<path id="Vector_6" d="M24.5283 25.7395L25.6804 25.7554L25.6796 31.8624L24.476 31.8571C24.474 31.077 24.4219 26.1587 24.5283 25.7395Z" fill="var(--fill-0, #FEFEFE)"/>
<path id="Vector_7" d="M36.8875 25.0659C37.2839 25.0606 37.7363 25.0844 38.1368 25.0963C37.7124 25.5606 37.2986 26.0341 36.8968 26.5176C36.7389 26.5547 36.0619 26.5481 35.8641 26.5507C36.1905 26.0461 36.5317 25.5507 36.8875 25.0659Z" fill="var(--fill-0, #FEFEFE)"/>
</g>
</svg>
